<?xml version="1.0" standalone="no"?>
<!DOCTYPE svg PUBLIC "-//W3C//DTD SVG 20010904//EN"
 "http://www.w3.org/TR/2001/REC-SVG-20010904/DTD/svg10.dtd">
<svg version="1.0" xmlns="http://www.w3.org/2000/svg"
 width="2048.000000pt" height="2048.000000pt" viewBox="0 0 2048.000000 2048.000000"
 preserveAspectRatio="xMidYMid meet">
<metadata>
Created by potrace 1.14, written by Peter Selinger 2001-2017
</metadata>
<g transform="translate(0.000000,2048.000000) scale(0.100000,-0.100000)"
fill="#000000" stroke="none">
<path d="M2730 20433 c-30 -2 -125 -15 -210 -29 -344 -58 -605 -144 -904 -297
-778 -398 -1341 -1130 -1534 -1992 -61 -268 -78 -509 -62 -845 9 -196 10
-1858 5 -7220 -3 -3831 -6 -7048 -6 -7150 -1 -561 173 -1121 502 -1610 459
-683 1205 -1153 2018 -1271 134 -20 167 -21 505 -13 385 8 1923 9 9826 5 3683
-2 5023 0 5075 8 805 130 1460 527 1952 1181 165 220 331 550 427 849 40 124
90 334 101 421 4 30 18 78 32 105 l26 50 -7 6140 c-9 7429 -13 8866 -26 9005
-56 568 -283 1118 -647 1570 -118 146 -315 342 -460 457 -551 438 -1267 672
-1948 637 -164 -9 -13254 -9 -14165 -1 -245 2 -470 2 -500 0z m7651 -3984 c53
-10 114 -27 135 -37 22 -11 66 -32 99 -47 71 -33 172 -131 206 -199 12 -25 26
-46 31 -46 4 0 8 -7 8 -15 0 -8 11 -38 24 -67 64 -140 76 -279 38 -422 -12
-43 -26 -84 -30 -90 -5 -6 -15 -27 -22 -46 -8 -19 -24 -52 -37 -72 -13 -21
-23 -44 -23 -52 0 -8 -4 -16 -8 -18 -4 -1 -20 -23 -34 -49 l-27 -45 75 -89
c41 -50 78 -91 84 -93 5 -2 10 -10 10 -17 0 -8 9 -19 20 -25 11 -6 20 -17 20
-25 0 -8 6 -18 13 -22 6 -4 34 -37 62 -73 62 -81 67 -87 85 -107 8 -9 19 -24
25 -33 24 -40 80 -110 87 -110 4 0 8 -6 8 -13 0 -8 9 -22 20 -32 11 -10 20
-24 20 -31 0 -7 3 -14 8 -16 10 -4 82 -106 82 -117 0 -5 7 -15 16 -22 14 -12
37 -42 79 -107 6 -9 29 -45 53 -80 23 -35 42 -67 42 -71 0 -5 7 -14 16 -22 8
-7 24 -29 35 -48 20 -38 38 -67 52 -85 19 -26 77 -118 77 -123 0 -4 10 -20 23
-37 12 -17 35 -56 51 -86 16 -30 34 -62 41 -70 7 -8 28 -43 46 -77 19 -35 46
-84 61 -110 15 -27 40 -70 55 -98 15 -27 38 -68 50 -90 13 -22 33 -61 44 -87
12 -27 26 -48 30 -48 5 0 9 -7 9 -15 0 -9 11 -33 25 -55 14 -22 25 -45 25 -51
0 -6 8 -23 18 -37 10 -15 31 -54 46 -87 15 -33 31 -67 35 -75 4 -8 14 -28 23
-45 15 -30 47 -99 88 -190 35 -79 66 -146 89 -193 12 -24 21 -49 21 -55 0 -7
11 -34 25 -62 13 -27 34 -77 46 -110 12 -33 33 -83 46 -111 12 -28 23 -58 23
-66 0 -8 9 -33 20 -55 11 -22 24 -60 29 -83 5 -23 11 -44 14 -46 2 -2 20 13
40 33 203 211 355 358 487 473 47 40 90 78 95 84 6 6 37 33 70 60 33 28 67 56
75 63 8 8 29 26 46 41 16 15 47 41 69 57 21 17 46 38 56 48 11 9 22 17 25 17
4 0 17 10 29 23 12 12 34 31 50 42 42 30 157 122 180 145 12 11 26 20 33 20 7
0 12 3 12 8 0 4 20 21 45 37 24 17 45 33 45 38 0 4 5 7 12 7 7 0 21 9 33 21
18 19 169 134 220 169 82 56 105 74 105 81 0 5 6 9 13 9 8 0 22 9 32 20 10 11
22 20 27 20 10 0 41 22 102 73 19 15 38 27 44 27 6 0 12 3 14 8 3 8 105 82
113 82 3 0 31 20 64 45 32 25 63 45 69 45 5 0 17 9 27 20 10 11 24 20 31 20 7
0 14 4 16 9 3 8 31 27 155 107 35 23 72 48 81 56 9 8 42 30 72 48 30 18 57 36
60 40 3 4 19 14 37 23 17 9 37 22 45 29 16 15 36 28 101 64 26 15 47 31 47 36
0 4 9 8 20 8 11 0 20 4 20 8 0 5 20 19 45 32 25 13 45 27 45 31 0 4 10 11 23
15 12 4 36 17 53 30 17 13 34 24 38 24 7 0 63 38 84 58 7 6 35 26 60 43 26 18
52 37 57 43 15 17 102 76 113 76 5 0 18 8 29 18 12 9 37 30 57 46 l36 28 0
104 c0 81 5 117 21 162 12 31 23 67 26 80 3 12 9 22 12 22 4 0 17 20 29 44 12
24 29 49 37 56 8 7 15 19 15 26 0 8 4 14 8 14 4 0 16 15 27 33 30 52 150 164
219 204 68 40 165 78 266 105 98 25 128 29 205 26 190 -10 406 -98 515 -210
46 -47 140 -193 140 -218 0 -8 10 -44 21 -80 18 -54 21 -92 23 -225 1 -145 -1
-167 -24 -235 -13 -41 -35 -92 -47 -112 -13 -21 -23 -40 -23 -42 0 -6 -59 -96
-76 -116 -49 -57 -133 -140 -142 -140 -7 0 -12 -4 -12 -9 0 -9 -107 -81 -122
-81 -5 0 -27 -9 -50 -21 -45 -23 -112 -35 -260 -48 -107 -10 -118 -13 -118
-42 0 -11 -5 -30 -12 -42 -6 -12 -21 -49 -34 -82 -12 -33 -36 -98 -54 -145
-17 -47 -35 -101 -40 -120 -4 -19 -15 -55 -24 -80 -8 -25 -16 -53 -16 -63 0
-10 -11 -57 -25 -105 -13 -48 -34 -132 -45 -187 -12 -55 -33 -146 -46 -202
-13 -56 -24 -114 -24 -129 0 -14 -7 -53 -15 -86 -9 -33 -20 -87 -24 -121 -5
-34 -18 -111 -31 -172 -88 -447 -102 -517 -110 -595 -4 -36 -17 -120 -29 -188
-11 -68 -21 -138 -21 -155 0 -33 -23 -218 -66 -529 -13 -97 -24 -204 -24 -236
0 -33 -9 -127 -20 -210 -29 -218 -40 -404 -50 -892 -17 -845 -31 -1347 -41
-1530 -5 -102 -16 -372 -24 -600 -8 -228 -21 -467 -29 -530 -8 -63 -15 -144
-16 -180 0 -36 -10 -117 -21 -180 -11 -63 -24 -144 -29 -180 -4 -36 -17 -92
-29 -125 -11 -33 -21 -67 -21 -76 0 -8 -9 -34 -20 -57 -11 -22 -20 -46 -20
-52 0 -6 -11 -28 -25 -50 -14 -22 -25 -42 -25 -45 0 -17 -94 -130 -164 -199
-99 -96 -303 -270 -371 -316 -27 -19 -56 -40 -63 -47 -7 -7 -19 -13 -27 -13
-7 0 -15 -4 -17 -8 -1 -5 -28 -24 -58 -43 -30 -19 -64 -40 -75 -47 -11 -7 -37
-20 -57 -29 -21 -9 -38 -19 -38 -23 0 -4 -15 -13 -32 -21 -18 -7 -44 -21 -58
-32 -14 -10 -38 -25 -55 -33 -33 -15 -55 -28 -102 -61 -17 -13 -38 -23 -47
-23 -8 0 -17 -4 -20 -9 -7 -11 -435 -221 -452 -221 -5 0 -20 -9 -34 -20 -14
-11 -31 -20 -39 -20 -7 0 -43 -14 -80 -31 -36 -18 -84 -40 -106 -50 -228 -102
-245 -109 -259 -109 -8 0 -35 -9 -61 -20 -26 -11 -54 -20 -63 -20 -9 0 -53
-11 -97 -24 -44 -14 -116 -34 -160 -46 -44 -12 -116 -32 -160 -45 -116 -35
-242 -66 -300 -75 -27 -5 -79 -15 -115 -23 -36 -9 -164 -27 -285 -42 -121 -14
-249 -30 -285 -36 -36 -5 -99 -15 -140 -20 -41 -6 -147 -21 -235 -34 -88 -13
-243 -35 -345 -50 -102 -14 -225 -33 -275 -41 -49 -8 -157 -19 -240 -24 -82
-6 -175 -14 -205 -19 -147 -23 -243 -32 -455 -45 -278 -16 -404 -11 -780 33
-49 6 -120 15 -157 21 -37 5 -88 10 -115 10 -26 0 -77 9 -111 20 -35 11 -78
20 -95 20 -18 0 -104 11 -192 24 -139 22 -336 50 -580 85 -38 6 -99 15 -135
20 -36 6 -164 22 -285 36 -121 15 -249 33 -285 42 -36 8 -87 18 -115 23 -58 9
-184 40 -300 75 -44 13 -116 33 -160 45 -44 12 -116 32 -160 46 -44 13 -88 24
-97 24 -9 0 -37 9 -63 20 -26 11 -53 20 -61 20 -14 0 -31 7 -259 109 -22 10
-70 32 -106 50 -37 17 -73 31 -80 31 -8 0 -25 9 -39 20 -14 11 -29 20 -34 20
-17 0 -445 210 -452 221 -3 5 -12 9 -20 9 -9 0 -30 10 -47 23 -47 33 -69 46
-102 61 -16 8 -41 23 -55 33 -14 11 -40 25 -57 32 -18 8 -33 17 -33 21 0 4
-17 14 -37 23 -21 9 -47 22 -58 29 -11 7 -45 28 -75 47 -30 19 -56 38 -58 43
-2 4 -10 8 -17 8 -8 0 -20 6 -27 13 -7 7 -35 28 -63 47 -68 46 -272 220 -371
316 -70 69 -164 182 -164 199 0 3 -11 23 -25 45 -14 22 -25 44 -25 50 0 6 -9
30 -20 52 -11 23 -20 49 -20 57 0 9 -10 43 -21 76 -12 33 -25 89 -29 125 -5
36 -18 117 -29 180 -11 63 -21 144 -21 180 -1 36 -8 117 -16 180 -8 63 -21
302 -29 530 -8 228 -19 498 -24 600 -10 183 -24 685 -41 1530 -10 488 -21 674
-50 892 -11 83 -20 177 -20 210 0 32 -11 139 -24 236 -43 311 -66 496 -66 529
0 17 -10 87 -21 155 -12 68 -25 152 -29 188 -8 78 -22 148 -110 595 -13 61
-26 138 -31 172 -4 34 -15 88 -24 121 -8 33 -15 72 -15 86 0 15 -11 73 -24
129 -13 56 -34 147 -46 202 -11 55 -32 139 -45 187 -14 48 -25 95 -25 105 0
10 -8 38 -16 63 -9 25 -20 61 -24 80 -5 19 -23 73 -40 120 -18 47 -42 112 -54
145 -13 33 -28 70 -34 82 -7 12 -12 31 -12 42 0 29 -11 32 -118 42 -148 13
-215 25 -260 48 -23 12 -45 21 -50 21 -15 0 -122 72 -122 81 0 5 -5 9 -12 9
-9 0 -93 83 -142 140 -17 20 -76 110 -76 116 0 2 -10 21 -23 42 -12 20 -34 71
-47 112 -23 68 -25 90 -24 235 2 133 5 171 23 225 11 36 21 72 21 80 0 25 94
171 140 218 109 112 325 200 515 210 77 3 107 -1 205 -26 101 -27 198 -65 266
-105 69 -40 189 -152 219 -204 11 -18 23 -33 27 -33 4 0 8 -6 8 -14 0 -7 7
-19 15 -26 8 -7 25 -32 37 -56 12 -24 25 -44 29 -44 3 0 9 -10 12 -22 3 -13
14 -49 26 -80 16 -45 21 -81 21 -162 l0 -104 36 -28 c20 -16 45 -37 57 -46 11
-10 24 -18 29 -18 11 0 98 -59 113 -76 6 -6 31 -25 57 -43 25 -17 53 -37 60
-43 21 -20 77 -58 84 -58 4 0 21 -11 38 -24 17 -13 41 -26 54 -30 12 -4 22
-11 22 -15 0 -4 20 -18 45 -31 25 -13 45 -27 45 -32 0 -4 9 -8 20 -8 11 0 20
-4 20 -8 0 -5 21 -21 48 -36 64 -36 84 -49 100 -64 8 -7 28 -20 45 -29 18 -9
34 -19 37 -23 3 -4 30 -22 60 -40 30 -18 63 -40 72 -48 9 -8 46 -33 81 -56
124 -80 152 -99 155 -107 2 -5 9 -9 16 -9 7 0 21 -9 31 -20 10 -11 22 -20 27
-20 6 0 37 -20 69 -45 33 -25 61 -45 64 -45 8 0 110 -74 113 -82 2 -5 8 -8 14
-8 6 0 25 -12 44 -27 61 -51 92 -73 102 -73 5 0 17 -9 27 -20 10 -11 24 -20
32 -20 7 0 13 -4 13 -9 0 -7 23 -25 105 -81 51 -35 202 -150 220 -169 12 -12
26 -21 33 -21 7 0 12 -3 12 -7 0 -5 21 -21 45 -38 25 -16 45 -33 45 -37 0 -5
5 -8 12 -8 7 0 21 -9 33 -20 23 -23 138 -115 180 -145 16 -11 38 -30 50 -42
12 -13 25 -23 29 -23 3 0 14 -8 25 -17 10 -10 35 -31 56 -48 22 -16 53 -42 69
-57 17 -15 38 -33 46 -41 8 -7 42 -35 75 -63 33 -27 65 -54 70 -60 6 -6 48
-44 95 -84 132 -115 284 -262 487 -473 20 -20 38 -35 40 -33 3 2 9 23 14 46 5
23 18 61 29 83 11 22 20 47 20 55 0 8 11 38 23 66 13 28 34 78 46 111 12 33
33 83 46 110 14 28 25 55 25 62 0 6 9 31 21 55 23 47 54 114 89 193 41 91 73
160 88 190 9 17 19 37 23 45 4 8 20 42 35 75 15 33 36 72 46 87 10 14 18 31
18 37 0 6 11 29 25 51 14 22 25 46 25 55 0 8 4 15 9 15 4 0 18 21 30 48 11 26
31 65 44 87 12 22 35 63 50 90 15 28 40 71 55 98 15 26 42 75 61 110 18 34 39
69 46 77 7 8 25 40 41 70 16 30 39 69 51 86 13 17 23 33 23 37 0 5 58 97 77
123 14 18 32 47 52 85 11 19 27 41 35 48 9 8 16 17 16 22 0 4 19 36 43 71 23
35 47 71 52 80 42 65 65 95 79 107 9 7 16 17 16 22 0 11 72 113 82 117 5 2 8
9 8 16 0 7 9 21 20 31 11 10 20 24 20 32 0 7 4 13 8 13 7 0 61 68 87 110 6 8
17 24 25 33 30 35 36 43 85 107 28 36 56 69 63 73 6 4 12 14 12 22 0 8 9 19
20 25 11 6 20 17 20 25 0 7 5 15 10 17 6 2 43 43 84 93 l75 89 -27 45 c-14 26
-30 48 -34 49 -4 2 -8 10 -8 18 0 8 -10 31 -23 52 -13 20 -29 53 -37 72 -7 19
-17 40 -22 46 -4 6 -18 47 -30 90 -38 143 -26 282 38 422 13 29 24 59 24 67 0
8 4 15 8 15 5 0 19 21 31 46 34 68 135 166 206 199 33 15 78 37 101 47 54 25
195 55 264 56 30 0 98 -8 151 -19z"/>
<path d="M10106 16044 c-28 -13 -54 -24 -59 -24 -13 0 -48 -46 -81 -110 -27
-49 -30 -65 -30 -146 -1 -80 3 -99 28 -155 61 -134 71 -150 128 -194 62 -48
108 -122 108 -174 0 -41 -26 -104 -53 -128 -12 -11 -42 -44 -67 -73 -25 -29
-54 -62 -66 -74 -11 -11 -49 -55 -84 -96 -35 -41 -67 -76 -72 -78 -4 -2 -8 -8
-8 -13 0 -8 -86 -118 -160 -207 -11 -13 -20 -27 -20 -31 0 -4 -11 -18 -25 -31
-14 -13 -25 -29 -25 -37 0 -7 -3 -13 -7 -13 -5 0 -19 -17 -33 -37 -14 -20 -29
-42 -35 -48 -5 -6 -14 -18 -20 -26 -5 -9 -23 -35 -40 -59 -41 -59 -52 -76
-109 -161 -27 -41 -52 -76 -55 -79 -9 -7 -71 -100 -71 -105 0 -3 -20 -34 -45
-71 -25 -36 -45 -67 -45 -69 0 -1 -18 -32 -40 -66 -22 -35 -43 -71 -47 -79 -3
-8 -12 -22 -19 -30 -6 -8 -21 -32 -33 -52 -31 -56 -54 -96 -95 -165 -20 -34
-36 -65 -36 -70 0 -5 -6 -15 -12 -21 -15 -15 -98 -165 -129 -232 -11 -24 -24
-47 -28 -50 -4 -3 -19 -32 -35 -65 -15 -33 -34 -71 -42 -85 -8 -14 -28 -54
-45 -90 -16 -36 -37 -76 -45 -90 -8 -14 -22 -41 -31 -60 -24 -55 -62 -138
-104 -228 -22 -46 -39 -86 -39 -90 0 -4 -9 -25 -19 -47 -10 -22 -31 -68 -45
-102 -14 -35 -37 -89 -50 -120 -14 -32 -34 -85 -47 -118 -12 -33 -32 -87 -45
-120 -13 -33 -24 -66 -24 -73 0 -7 -8 -31 -18 -55 -11 -23 -31 -80 -45 -127
-86 -282 -93 -295 -170 -337 -54 -29 -119 -30 -172 -2 -42 22 -94 75 -95 97 0
6 -5 12 -11 12 -5 0 -19 21 -31 48 -11 26 -27 51 -34 55 -8 4 -14 12 -14 17 0
11 -29 47 -72 93 -16 16 -28 32 -28 36 0 3 -20 26 -45 49 -25 23 -45 45 -45
48 0 6 -158 164 -165 164 -2 0 -37 33 -77 73 -40 39 -102 97 -138 127 -35 30
-79 70 -98 88 -19 17 -39 32 -43 32 -5 0 -16 11 -25 25 -9 14 -21 25 -28 25
-6 0 -17 9 -24 20 -7 11 -19 20 -27 20 -8 0 -15 4 -15 8 0 7 -48 48 -148 127
-7 5 -23 20 -34 33 -12 12 -25 22 -30 22 -4 0 -16 8 -27 18 -10 9 -33 28 -52
42 -18 14 -59 46 -91 73 -31 26 -62 47 -68 47 -5 0 -10 4 -10 9 0 8 -126 107
-162 126 -10 5 -18 13 -18 16 0 3 -20 19 -45 35 -25 15 -45 32 -45 36 0 4 -5
8 -11 8 -10 0 -42 23 -89 63 -8 7 -32 24 -52 37 -21 14 -38 28 -38 33 0 4 -6
7 -13 7 -8 0 -22 9 -32 20 -10 11 -24 20 -32 20 -7 0 -13 4 -13 9 0 5 -20 22
-45 38 -25 15 -45 31 -45 34 0 4 -11 10 -25 13 -14 4 -25 10 -25 15 0 5 -20
21 -45 35 -25 15 -45 31 -45 36 0 6 -6 10 -14 10 -8 0 -21 6 -28 13 -7 6 -40
30 -73 52 -33 22 -62 42 -65 45 -5 6 -138 97 -168 115 -49 30 -108 69 -118 79
-6 6 -38 28 -70 48 -76 49 -80 51 -199 128 -55 36 -107 68 -115 73 -8 4 -35
21 -60 37 -25 16 -56 35 -70 42 -14 7 -27 15 -30 19 -3 3 -20 14 -39 23 -18
10 -62 38 -98 62 -35 24 -71 44 -79 44 -8 0 -14 4 -14 8 0 4 -19 18 -42 30
-58 30 -120 68 -135 81 -7 6 -17 11 -23 11 -6 0 -26 11 -44 25 -18 14 -41 25
-51 25 -24 0 -97 57 -124 96 -44 63 -51 133 -25 236 20 75 14 177 -12 228 -9
19 -20 37 -24 40 -3 3 -16 21 -28 41 -83 136 -278 222 -441 194 -85 -14 -173
-58 -207 -102 -31 -41 -64 -165 -64 -243 0 -31 8 -78 18 -105 19 -56 77 -155
90 -155 5 0 14 -11 20 -25 6 -14 18 -25 27 -25 8 0 15 -5 15 -10 0 -6 24 -25
52 -44 43 -27 71 -36 143 -46 150 -21 210 -36 275 -71 71 -38 153 -123 170
-176 7 -21 30 -76 52 -123 55 -119 82 -178 105 -230 25 -56 66 -187 94 -300
11 -47 30 -119 41 -160 11 -41 24 -97 28 -125 4 -27 17 -88 28 -135 26 -104
53 -246 62 -320 4 -30 16 -100 28 -155 21 -96 30 -145 86 -440 49 -258 76
-423 76 -461 0 -21 9 -93 20 -159 11 -66 20 -140 20 -165 0 -25 11 -119 24
-210 14 -91 34 -264 46 -385 12 -121 27 -285 35 -365 30 -304 34 -399 40 -895
3 -280 10 -595 15 -700 6 -104 15 -365 20 -580 17 -696 34 -1052 66 -1345 28
-269 36 -326 55 -407 10 -45 19 -90 19 -99 0 -9 12 -42 26 -73 14 -31 31 -67
37 -81 17 -35 305 -320 325 -320 3 0 28 -19 56 -43 46 -38 77 -62 124 -92 9
-5 45 -29 80 -52 35 -24 69 -43 77 -43 8 0 17 -5 21 -11 3 -6 25 -19 48 -30
22 -11 64 -33 91 -50 102 -65 205 -121 325 -180 58 -29 135 -67 172 -85 381
-188 643 -295 868 -353 47 -13 123 -34 170 -47 175 -50 228 -64 330 -88 170
-40 330 -67 451 -76 112 -8 257 -28 414 -55 44 -8 121 -19 170 -25 50 -6 146
-20 215 -31 69 -11 140 -19 157 -19 18 0 90 -11 160 -24 71 -13 171 -27 223
-31 52 -3 127 -11 165 -16 39 -6 126 -14 195 -19 69 -4 224 -16 345 -25 249
-19 479 -16 625 8 93 16 179 25 470 52 80 8 191 23 248 34 56 12 117 21 135
21 18 0 88 8 157 19 69 11 166 25 215 31 50 6 126 17 170 25 157 27 302 47
414 55 121 9 281 36 451 76 102 24 155 38 330 88 47 13 123 34 170 47 155 40
243 71 405 141 229 99 303 133 463 212 37 18 114 56 172 85 120 59 223 115
325 180 28 17 69 39 91 50 23 11 45 24 48 30 4 6 13 11 21 11 8 0 42 19 77 43
35 23 71 47 80 52 47 30 78 54 124 92 28 24 53 43 56 43 20 0 308 285 325 320
6 14 23 50 37 81 14 31 26 64 26 73 0 9 9 54 19 99 19 81 27 138 55 407 32
293 49 649 66 1345 5 215 14 476 20 580 5 105 12 420 15 700 6 496 10 591 40
895 8 80 23 244 35 365 12 121 32 294 46 385 13 91 24 185 24 210 0 25 9 99
20 165 11 66 20 138 20 159 0 38 27 203 76 461 56 295 65 344 86 440 12 55 24
125 28 155 9 74 36 216 62 320 11 47 24 108 28 135 4 28 17 84 28 125 11 41
30 113 41 160 28 113 69 244 94 300 23 52 50 111 105 230 22 47 45 102 52 123
17 53 99 138 170 176 65 35 125 50 275 71 72 10 100 19 143 46 28 19 52 38 52
44 0 5 7 10 15 10 9 0 21 11 27 25 6 14 15 25 20 25 13 0 71 99 90 155 10 27
18 74 18 105 0 78 -33 202 -64 243 -34 44 -122 88 -207 102 -163 28 -358 -58
-441 -194 -12 -20 -25 -38 -28 -41 -4 -3 -15 -21 -24 -40 -26 -51 -32 -153
-12 -228 26 -103 19 -173 -25 -236 -27 -39 -100 -96 -124 -96 -10 0 -33 -11
-51 -25 -18 -14 -40 -25 -48 -25 -9 0 -16 -4 -16 -8 0 -4 -19 -18 -42 -30 -58
-30 -120 -68 -135 -81 -7 -6 -17 -11 -22 -11 -5 0 -39 -20 -74 -44 -36 -24
-80 -52 -98 -62 -19 -9 -36 -20 -39 -23 -3 -4 -16 -12 -30 -19 -14 -7 -45 -26
-70 -42 -25 -16 -52 -33 -60 -37 -8 -5 -60 -37 -115 -73 -119 -77 -123 -79
-199 -128 -32 -20 -64 -42 -70 -48 -10 -10 -69 -49 -118 -79 -30 -18 -163
-109 -168 -115 -3 -3 -32 -23 -65 -45 -33 -22 -66 -46 -73 -52 -7 -7 -20 -13
-28 -13 -8 0 -14 -4 -14 -10 0 -5 -20 -21 -45 -36 -25 -14 -45 -30 -45 -35 0
-5 -11 -11 -25 -15 -14 -3 -25 -9 -25 -13 0 -3 -20 -19 -45 -34 -25 -16 -45
-33 -45 -38 0 -5 -6 -9 -13 -9 -8 0 -22 -9 -32 -20 -10 -11 -24 -20 -32 -20
-7 0 -13 -3 -13 -7 0 -5 -17 -19 -38 -33 -20 -13 -44 -30 -52 -37 -47 -40 -79
-63 -89 -63 -6 0 -11 -4 -11 -8 0 -4 -20 -21 -45 -36 -25 -16 -45 -32 -45 -35
0 -3 -8 -11 -18 -16 -36 -19 -162 -118 -162 -126 0 -5 -5 -9 -10 -9 -6 0 -37
-21 -68 -47 -32 -27 -73 -59 -91 -73 -19 -14 -42 -33 -52 -42 -11 -10 -23 -18
-27 -18 -5 0 -18 -10 -30 -22 -11 -13 -27 -28 -34 -33 -100 -79 -148 -120
-148 -127 0 -4 -7 -8 -15 -8 -8 0 -20 -9 -27 -20 -7 -11 -18 -20 -24 -20 -7 0
-19 -11 -28 -25 -9 -14 -20 -25 -25 -25 -4 0 -24 -15 -43 -32 -19 -18 -63 -58
-98 -88 -36 -30 -98 -88 -138 -127 -40 -40 -75 -73 -77 -73 -7 0 -165 -158
-165 -164 0 -3 -20 -25 -45 -48 -25 -23 -45 -46 -45 -49 0 -4 -12 -20 -27 -36
-44 -46 -73 -82 -73 -93 0 -5 -6 -13 -14 -17 -7 -4 -23 -29 -34 -55 -12 -27
-26 -48 -31 -48 -6 0 -11 -6 -11 -12 -1 -22 -53 -75 -95 -97 -53 -28 -118 -27
-172 2 -77 42 -84 55 -170 337 -14 47 -34 104 -45 127 -10 24 -18 48 -18 55 0
7 -11 40 -24 73 -13 33 -33 87 -45 120 -13 33 -33 86 -47 118 -13 31 -36 85
-50 120 -14 34 -35 80 -45 102 -10 22 -19 43 -19 47 0 4 -17 44 -39 90 -42 90
-80 173 -104 228 -9 19 -23 46 -31 60 -8 14 -29 54 -45 90 -17 36 -37 76 -45
90 -8 14 -27 52 -42 85 -16 33 -31 62 -35 65 -4 3 -17 26 -28 50 -31 67 -114
217 -129 232 -6 6 -12 16 -12 21 0 5 -16 36 -36 70 -41 69 -64 109 -95 165
-12 20 -27 44 -33 52 -7 8 -16 22 -19 30 -4 8 -25 44 -47 79 -22 34 -40 65
-40 66 0 2 -20 33 -45 69 -25 37 -45 68 -45 71 0 5 -62 98 -71 105 -3 3 -28
38 -55 79 -57 85 -68 102 -109 161 -16 24 -34 50 -40 59 -5 8 -14 20 -20 26
-5 6 -21 28 -35 48 -14 20 -28 37 -32 37 -5 0 -8 6 -8 13 0 8 -11 24 -25 37
-14 13 -25 27 -25 31 0 4 -9 18 -20 31 -74 89 -160 199 -160 207 0 5 -4 11 -8
13 -5 2 -37 37 -72 78 -35 41 -73 85 -84 96 -12 12 -41 45 -66 74 -25 29 -55
62 -67 73 -27 24 -53 87 -53 128 0 52 46 126 108 174 57 44 67 60 128 194 25
56 29 75 28 155 0 81 -3 97 -30 146 -33 64 -68 110 -81 110 -5 0 -33 11 -61
25 -73 35 -195 35 -266 -1z m1456 -5604 c46 -27 73 -66 99 -141 35 -105 18
-197 -70 -376 -23 -45 -41 -89 -41 -96 0 -8 -14 -46 -31 -83 -17 -38 -37 -82
-44 -99 -40 -94 -121 -246 -144 -272 -6 -7 -11 -17 -11 -23 0 -6 -10 -26 -23
-43 -27 -39 -40 -60 -72 -117 -14 -25 -35 -61 -47 -80 -11 -19 -39 -69 -61
-110 -22 -41 -45 -82 -52 -90 -7 -8 -19 -28 -27 -45 -30 -62 -71 -130 -80
-133 -4 -2 -8 -12 -8 -22 0 -9 -7 -23 -15 -30 -8 -6 -17 -22 -21 -33 -3 -12
-17 -36 -30 -54 -13 -17 -24 -35 -24 -39 0 -4 -11 -22 -25 -40 -14 -18 -25
-35 -25 -37 0 -3 -18 -34 -40 -68 -22 -35 -47 -77 -55 -94 -8 -16 -26 -48 -39
-70 -14 -22 -34 -56 -46 -75 -11 -19 -34 -55 -50 -80 -16 -25 -34 -56 -40 -70
-6 -13 -15 -27 -19 -30 -5 -3 -18 -21 -29 -41 -40 -71 -47 -83 -59 -96 -21
-24 -71 -118 -79 -148 -3 -16 -15 -46 -24 -65 -10 -19 -21 -42 -24 -50 -3 -8
-19 -37 -36 -65 -16 -27 -39 -66 -50 -85 -11 -19 -34 -55 -50 -80 -16 -25 -34
-54 -39 -65 -5 -11 -18 -29 -30 -39 -11 -11 -21 -24 -21 -31 0 -6 -11 -22 -25
-35 -14 -13 -25 -29 -25 -35 0 -7 -9 -20 -20 -30 -11 -10 -20 -24 -20 -31 0
-7 -4 -14 -9 -16 -5 -1 -38 -41 -75 -88 -36 -47 -71 -92 -79 -100 -8 -8 -29
-37 -47 -65 -18 -27 -39 -57 -47 -65 -30 -34 -63 -78 -63 -84 0 -4 -11 -19
-25 -34 -14 -15 -25 -33 -25 -40 0 -8 -11 -27 -25 -44 -14 -16 -25 -35 -25
-42 0 -7 -9 -21 -20 -31 -11 -10 -20 -22 -20 -27 0 -4 -19 -33 -42 -62 -58
-73 -104 -96 -197 -96 -103 0 -143 25 -187 118 -34 73 -58 228 -43 290 11 50
65 168 86 190 7 7 13 18 13 23 0 6 10 25 23 42 13 18 47 86 76 152 82 186 232
497 251 521 5 5 32 57 60 115 29 57 58 115 66 129 7 14 22 44 33 66 11 23 24
45 30 48 6 4 11 16 11 26 0 10 4 20 9 22 4 2 25 35 46 73 37 69 99 174 143
244 12 20 26 46 32 58 5 11 14 24 19 28 6 3 29 39 52 78 22 40 53 92 69 117
16 25 39 61 50 80 11 19 32 53 45 75 13 22 33 57 44 77 11 20 25 39 31 43 5 3
10 13 10 21 0 8 11 27 25 42 14 15 25 33 25 39 0 7 9 21 20 30 11 10 20 21 20
26 0 5 11 23 25 41 14 18 25 38 25 43 0 6 7 16 16 24 8 7 24 29 35 48 11 20
27 48 37 62 9 14 33 51 52 81 19 30 40 61 45 70 6 8 28 42 50 74 40 60 56 87
82 136 8 15 19 30 24 33 5 4 19 25 32 47 26 48 30 54 82 132 22 32 45 66 50
75 6 9 29 42 53 73 23 31 42 61 42 66 0 5 9 17 19 26 11 10 23 31 26 46 6 27
54 90 69 90 4 0 22 11 40 25 18 14 38 25 45 25 18 0 91 50 138 94 75 71 163
93 225 56z m-3112 -230 c40 -20 74 -59 106 -120 15 -29 18 -57 18 -165 -1
-115 -4 -137 -27 -192 -14 -34 -28 -75 -32 -92 -3 -16 -12 -34 -19 -40 -7 -6
-21 -29 -31 -51 -10 -22 -22 -40 -27 -40 -4 0 -8 -6 -8 -14 0 -8 -6 -21 -13
-28 -16 -16 -95 -127 -122 -173 -12 -18 -28 -42 -38 -53 -9 -10 -17 -23 -17
-29 0 -5 -9 -18 -20 -28 -11 -10 -20 -23 -20 -28 0 -6 -11 -25 -25 -43 -14
-18 -25 -35 -25 -38 0 -9 -59 -93 -75 -106 -8 -7 -15 -16 -15 -21 0 -5 -29
-44 -64 -88 -36 -44 -70 -90 -77 -103 -6 -13 -18 -27 -25 -31 -8 -4 -14 -15
-14 -23 0 -8 -11 -27 -25 -42 -14 -15 -25 -31 -25 -37 0 -6 -9 -22 -19 -35
-67 -87 -148 -195 -157 -211 -6 -11 -21 -31 -32 -44 -11 -12 -23 -32 -26 -43
-4 -11 -13 -23 -21 -26 -21 -8 -18 -49 5 -74 11 -12 20 -25 20 -30 0 -5 7 -15
16 -23 8 -7 24 -30 35 -52 22 -43 198 -227 217 -227 7 0 12 -4 12 -9 0 -5 17
-20 38 -32 101 -63 218 -166 453 -399 264 -263 336 -331 356 -340 22 -10 153
-182 179 -236 21 -45 26 -70 27 -143 1 -79 -2 -93 -23 -125 -14 -20 -47 -48
-75 -62 -42 -22 -65 -27 -148 -30 -89 -3 -102 -1 -135 20 -20 13 -47 26 -59
30 -13 4 -23 11 -23 16 0 5 -20 19 -45 31 -25 12 -45 26 -45 31 0 4 -9 8 -20
8 -11 0 -20 4 -20 8 0 5 -17 18 -37 30 -21 11 -56 38 -78 58 -36 34 -132 116
-179 154 -10 8 -79 73 -151 143 -73 71 -143 136 -155 145 -12 9 -31 25 -41 35
-11 9 -22 17 -25 17 -8 0 -3 -5 -269 258 -233 230 -265 264 -265 280 0 6 -3
12 -8 14 -4 2 -28 32 -54 68 -25 36 -62 82 -82 102 -20 20 -36 41 -36 46 0 6
-6 12 -13 15 -25 9 -77 152 -77 209 1 119 74 295 163 390 27 29 83 105 124
168 42 63 85 125 96 137 11 12 25 31 31 41 6 11 39 56 74 101 34 45 62 84 62
86 0 3 20 31 45 64 25 32 45 62 45 66 0 4 10 18 23 30 12 12 40 48 62 78 22
31 43 56 48 57 4 0 7 6 7 13 0 8 9 22 20 32 11 10 20 24 20 32 0 7 4 13 8 13
4 0 25 25 47 56 22 31 50 68 62 83 30 34 33 39 68 86 17 22 35 46 40 52 6 7
18 23 27 35 43 58 122 155 142 174 25 24 66 80 66 91 0 14 104 113 120 113 8
1 26 7 40 15 36 20 94 18 140 -5z m3790 -1 c36 -14 130 -95 130 -112 0 -9 35
-56 69 -92 11 -11 44 -51 75 -90 31 -38 72 -88 91 -110 19 -22 54 -65 77 -95
24 -30 46 -56 50 -58 5 -2 8 -9 8 -16 0 -7 11 -23 25 -36 14 -13 25 -29 25
-36 0 -7 4 -14 9 -16 8 -3 63 -72 101 -129 16 -23 66 -87 100 -127 11 -13 20
-27 20 -31 0 -4 9 -16 20 -26 11 -10 20 -23 20 -28 0 -5 11 -20 24 -32 13 -12
36 -42 52 -66 15 -24 35 -52 44 -61 8 -9 27 -34 43 -55 15 -21 46 -63 70 -93
46 -61 52 -69 84 -127 12 -22 29 -45 37 -52 9 -8 16 -19 16 -26 0 -8 3 -15 8
-17 4 -1 29 -30 55 -63 27 -33 55 -64 63 -68 8 -4 14 -14 14 -21 0 -7 8 -21
18 -32 22 -24 68 -134 82 -194 20 -94 6 -200 -37 -267 -9 -15 -36 -48 -60 -73
-23 -25 -55 -63 -72 -85 -16 -22 -39 -52 -50 -67 -12 -14 -21 -31 -21 -36 0
-6 -3 -12 -7 -14 -5 -1 -26 -25 -48 -53 -46 -58 -243 -255 -370 -370 -49 -44
-100 -90 -112 -102 -13 -13 -27 -23 -30 -23 -10 0 -112 -90 -177 -156 -34 -34
-95 -90 -136 -125 -41 -35 -91 -78 -110 -96 -19 -18 -38 -33 -42 -33 -4 0 -27
-20 -51 -45 -24 -25 -49 -45 -56 -45 -6 0 -11 -4 -11 -10 0 -5 -19 -22 -42
-36 -24 -15 -44 -31 -46 -35 -2 -5 -10 -9 -19 -9 -8 0 -29 -11 -47 -25 -18
-14 -40 -25 -49 -25 -9 0 -20 -6 -24 -13 -4 -7 -33 -27 -65 -45 -54 -30 -61
-31 -152 -28 -78 2 -105 7 -144 27 -125 62 -151 190 -71 343 30 59 157 225
172 226 8 0 87 71 120 108 11 12 24 22 29 22 8 0 40 33 99 103 18 20 36 37 39
37 4 0 63 56 131 123 159 159 301 287 318 287 5 0 14 7 22 16 7 8 31 25 53 36
23 11 45 27 49 34 4 8 12 14 18 14 5 0 46 37 90 83 44 45 88 91 99 102 11 12
20 24 20 27 0 11 63 108 70 108 4 0 12 11 18 25 11 23 7 54 -8 65 -4 3 -20 25
-36 49 -52 80 -58 88 -121 171 -35 45 -63 85 -63 91 0 5 -4 9 -8 9 -5 0 -19
20 -32 45 -13 25 -27 45 -31 45 -4 0 -11 10 -15 23 -4 12 -10 24 -13 27 -16
13 -171 210 -171 218 0 5 -7 16 -16 23 -22 18 -105 142 -123 184 -5 11 -18 29
-30 39 -11 11 -21 23 -21 27 0 14 -82 136 -165 244 -8 10 -15 25 -15 32 0 7
-6 13 -13 13 -7 0 -23 19 -35 43 -12 23 -26 49 -31 57 -25 41 -61 165 -72 247
-36 263 101 428 291 352z"/>
<path d="M11432 10204 c-18 -17 -62 -46 -99 -65 -108 -55 -126 -73 -208 -200
-5 -9 -20 -35 -32 -57 -13 -22 -27 -43 -32 -47 -5 -3 -16 -18 -24 -33 -25 -50
-59 -107 -71 -122 -7 -8 -16 -22 -19 -30 -4 -8 -20 -37 -36 -65 -17 -27 -39
-67 -50 -87 -12 -20 -25 -39 -30 -43 -5 -3 -24 -31 -42 -63 -18 -31 -41 -66
-51 -76 -10 -11 -18 -24 -18 -28 0 -10 -49 -87 -68 -106 -7 -8 -20 -28 -29
-45 -8 -17 -22 -37 -29 -45 -8 -7 -14 -20 -14 -28 0 -8 -4 -14 -9 -14 -4 0
-19 -20 -32 -45 -13 -25 -27 -45 -32 -45 -4 0 -12 -10 -17 -22 -6 -13 -24 -43
-40 -68 -16 -25 -35 -56 -42 -70 -7 -14 -23 -39 -35 -56 -13 -17 -23 -34 -23
-37 0 -7 -63 -110 -71 -117 -4 -3 -20 -31 -37 -62 -16 -32 -40 -70 -51 -87
-12 -16 -21 -33 -21 -38 0 -5 -8 -18 -17 -29 -23 -25 -37 -47 -67 -105 -14
-25 -32 -51 -40 -58 -9 -8 -16 -19 -16 -25 0 -6 -9 -22 -20 -36 -11 -14 -20
-33 -20 -42 0 -10 -4 -18 -8 -18 -5 0 -22 -25 -38 -56 -48 -93 -59 -113 -71
-131 -11 -15 -40 -70 -98 -183 -7 -14 -30 -60 -51 -103 -21 -43 -42 -81 -46
-83 -4 -3 -8 -12 -8 -20 0 -9 -11 -30 -25 -48 -14 -18 -25 -39 -25 -47 0 -8
-4 -19 -9 -24 -5 -6 -26 -44 -46 -85 -21 -41 -48 -96 -61 -121 -13 -26 -24
-52 -24 -58 0 -26 -89 -212 -139 -291 -64 -102 -91 -161 -91 -200 0 -56 30
-140 49 -140 16 0 51 33 51 48 0 4 9 15 20 25 11 9 20 24 20 32 0 8 4 15 8 15
5 0 19 19 31 43 38 72 65 112 104 160 20 25 37 48 37 51 0 3 9 15 20 26 11 11
23 32 26 47 4 16 10 30 14 33 7 5 25 35 86 143 15 26 31 47 36 47 4 0 8 4 8
10 0 5 20 39 45 76 25 36 45 69 45 73 0 5 7 15 16 22 25 20 145 203 165 249 6
13 14 27 18 30 4 3 21 25 37 49 16 24 37 56 46 70 10 14 27 44 39 65 12 22 26
45 33 52 14 15 81 120 121 190 17 28 37 60 46 71 9 10 24 34 34 53 10 18 24
40 31 48 8 7 14 18 14 23 0 5 15 33 34 62 19 29 44 70 55 90 75 132 104 181
112 187 6 4 32 47 63 105 6 11 21 34 34 52 12 17 22 38 22 46 0 8 7 20 15 27
8 6 17 22 21 33 4 12 16 36 28 52 23 33 33 50 90 157 21 40 47 84 57 97 11 13
19 30 19 37 0 7 6 19 13 26 7 7 24 34 37 61 13 26 27 47 32 47 4 0 8 9 8 20 0
11 4 20 8 20 4 0 18 19 30 43 12 23 36 62 52 87 39 60 140 265 140 286 1 5 9
27 20 49 11 22 19 44 20 49 0 12 37 97 72 164 32 61 57 168 43 180 -6 4 -25
-6 -43 -24z"/>
<path d="M8327 9997 c-20 -22 -37 -43 -37 -46 0 -3 -27 -34 -58 -68 -32 -34
-76 -88 -97 -120 -21 -32 -44 -63 -49 -68 -6 -6 -31 -39 -55 -75 -25 -36 -48
-66 -53 -68 -4 -2 -8 -8 -8 -14 0 -6 -9 -20 -20 -32 -33 -35 -120 -156 -120
-166 0 -6 -4 -10 -8 -10 -5 0 -30 -31 -57 -69 -26 -39 -54 -72 -61 -75 -8 -3
-14 -11 -14 -18 0 -6 -8 -21 -19 -32 -28 -32 -111 -155 -111 -165 0 -5 -3 -11
-7 -13 -11 -5 -93 -105 -93 -114 0 -4 -7 -14 -15 -23 -26 -28 -61 -75 -80
-108 -11 -18 -23 -33 -27 -33 -4 0 -8 -5 -8 -10 0 -12 -60 -102 -84 -126 -9
-8 -16 -18 -16 -22 0 -4 -19 -27 -41 -52 -23 -25 -49 -61 -59 -81 -27 -51 -60
-154 -60 -185 0 -39 29 -94 75 -141 44 -46 135 -167 135 -180 0 -5 8 -15 18
-24 9 -8 28 -30 41 -47 35 -47 406 -412 418 -412 3 0 16 -10 28 -22 12 -13 34
-32 50 -43 36 -25 91 -74 230 -208 125 -121 130 -125 205 -188 30 -25 71 -60
90 -78 19 -18 60 -48 91 -67 56 -34 57 -34 94 -18 35 14 41 14 76 -1 20 -10
52 -32 70 -51 18 -19 37 -34 41 -34 15 0 8 40 -13 83 -21 41 -113 159 -129
165 -19 7 -118 102 -344 327 -220 220 -381 365 -405 365 -5 0 -11 4 -13 9 -1
4 -22 20 -45 35 -24 14 -43 31 -43 36 0 6 -5 10 -12 10 -16 0 -194 184 -224
232 -13 20 -28 39 -34 43 -5 3 -10 13 -10 21 0 8 -8 23 -17 33 -90 96 -108
153 -81 243 6 22 22 49 35 61 12 12 23 25 23 28 0 13 73 119 81 119 5 0 9 7 9
15 0 8 8 22 18 32 23 23 122 151 122 158 0 2 17 30 38 61 20 31 42 64 47 73
24 38 116 160 130 171 8 7 15 19 15 26 0 8 3 14 8 14 4 0 21 21 37 45 17 25
33 45 38 45 4 0 7 6 7 14 0 8 6 21 14 28 7 8 23 33 35 56 12 23 26 42 31 42 6
0 10 6 10 14 0 8 6 21 13 28 16 16 77 107 77 114 0 3 20 33 45 65 25 33 45 63
45 68 0 5 7 14 15 21 22 19 73 117 101 194 18 53 24 90 24 157 0 48 -3 90 -8
93 -4 2 -24 -14 -45 -37z"/>
<path d="M12151 10021 c-31 -58 9 -238 81 -364 18 -32 38 -67 44 -78 6 -11 20
-30 31 -42 11 -12 47 -62 79 -112 32 -49 64 -96 71 -103 7 -7 13 -20 13 -28 0
-8 4 -14 10 -14 5 0 19 -19 31 -42 12 -23 28 -48 35 -56 8 -7 14 -18 14 -23 0
-5 15 -27 34 -47 35 -38 123 -150 141 -180 6 -9 15 -21 21 -27 16 -15 74 -105
74 -114 0 -5 7 -14 16 -22 8 -7 24 -29 35 -48 26 -48 40 -69 64 -96 47 -51 74
-87 80 -104 3 -11 12 -22 20 -25 8 -3 15 -11 15 -18 0 -7 10 -24 23 -38 12
-14 42 -53 67 -88 57 -82 65 -147 26 -205 -14 -21 -26 -41 -26 -45 0 -4 -9
-13 -20 -20 -11 -7 -20 -19 -20 -27 0 -8 -6 -15 -12 -15 -7 0 -28 -27 -46 -59
-32 -55 -222 -261 -242 -261 -5 0 -13 -6 -17 -14 -5 -8 -37 -34 -73 -57 -36
-23 -69 -48 -73 -55 -4 -8 -14 -14 -21 -14 -19 0 -126 -98 -348 -319 -108
-108 -218 -214 -244 -236 -25 -22 -56 -49 -68 -61 -11 -12 -26 -23 -32 -25
-18 -7 -110 -122 -133 -167 -21 -42 -28 -82 -13 -82 4 0 23 15 41 34 18 19 51
42 72 52 37 16 42 16 74 1 34 -16 36 -16 93 14 31 17 64 37 72 45 22 20 68 60
118 102 94 79 161 140 247 224 50 48 146 133 215 190 110 89 187 161 430 398
58 56 140 161 140 179 0 6 6 14 13 18 6 4 31 33 54 63 24 30 59 74 79 97 50
58 55 108 20 187 -14 32 -26 64 -26 71 0 7 -31 52 -69 99 -39 48 -96 126 -128
174 -31 48 -63 93 -70 100 -7 7 -13 17 -13 21 0 3 -15 22 -33 41 -18 19 -53
62 -77 95 -25 33 -47 62 -50 65 -3 3 -23 32 -45 65 -22 33 -74 104 -115 158
-41 54 -80 108 -87 119 -6 11 -15 23 -20 27 -4 3 -25 31 -46 62 -21 30 -56 73
-77 95 -22 21 -39 45 -40 52 0 6 -3 12 -8 12 -4 0 -27 30 -52 68 -25 37 -50
72 -56 77 -5 6 -21 27 -35 47 -13 21 -27 38 -31 38 -5 0 -8 6 -8 13 0 7 -29
44 -65 82 -36 39 -65 73 -65 76 0 3 -18 25 -39 48 -37 40 -40 42 -50 22z"/>
</g>
</svg>
